<svg xmlns="http://www.w3.org/2000/svg" fill="none" viewBox="0 0 142 32" height="32" width="142">
<g clip-path="url(#clip0_3910_3236)">
<path fill="#0021EF" d="M117.677 0.0223908H112.145L105.381 31.9776H117.05L118.797 23.7427H123.209L126.121 31.9776H139.246L134.923 22.4448C137.499 21.6839 139.514 19.6252 140.209 17.0294C140.276 16.8056 140.321 16.5595 140.365 16.3133L141.844 9.33148C141.956 8.8168 142.023 8.25736 142.023 7.69792C142 3.44617 138.551 1.31541e-05 134.296 1.31541e-05H117.677V0.0223908ZM129.816 14.3888C129.637 15.0602 129.032 15.5525 128.316 15.5525H120.521L122.089 8.16784H129.256C130.107 8.16784 130.779 8.88393 130.779 9.7119C130.779 10.5399 130.779 9.93568 130.735 10.0476V10.1371L130.04 13.628L129.839 14.3888"></path>
<path fill="#0021EF" d="M110.083 0.022352H96.2858L92.2319 4.90067L90.2385 0.022352H76.4417L82.9369 16L69.5656 32H83.3625L87.4612 27.0993L89.4546 32H103.251L96.7338 16L110.083 0.022352Z"></path>
<path fill="#0021EF" d="M23.5621 21.7511C23.5845 21.6168 23.6069 21.505 23.6069 21.3707C23.6069 21.505 23.6069 21.6392 23.5621 21.7735V21.7511Z"></path>
<path fill="#0021EF" d="M66.8557 4.86723e-05C66.7885 4.86723e-05 66.7213 4.86723e-05 66.6317 4.86723e-05H48.8033C45.2421 4.86723e-05 42.2409 2.41683 41.3674 5.68396V5.7511C41.3002 5.9525 41.2554 6.15389 41.2106 6.37767L37.8062 22.3553C37.7614 22.5343 37.7166 22.7357 37.6942 22.9371V23.0266C37.627 23.4294 37.5822 23.8546 37.5822 24.2798C37.5822 28.4868 40.9642 31.9105 45.1526 31.9777H62.981C63.0929 31.9777 63.2273 31.9777 63.3393 31.9777C67.1917 31.9777 70.3721 29.1581 70.9545 25.4882L74.4485 9.10774C74.4485 9.10774 74.5828 8.19026 74.5828 7.69795C74.5604 3.46858 71.1112 4.86723e-05 66.8557 4.86723e-05ZM59.6437 23.8098H49.1169L52.4541 8.16788H62.981L59.6437 23.8098Z"></path>
<path fill="#0021EF" d="M38.3893 5.25862C38.77 2.43904 36.0375 -0.00012207 33.1259 -0.00012207C30.2142 -0.00012207 33.0363 -0.00012207 32.9691 -0.00012207H6.78644L0 31.9999H27.0562C27.0786 31.9775 27.1233 31.9775 27.1457 31.9775C30.8861 31.9775 34.1338 29.5831 34.9849 26.1593L35.4776 23.9216L35.8584 22.0642C35.8584 22.0642 35.9703 21.3258 35.9703 20.9453C35.9703 18.0139 33.6634 15.6418 30.7517 15.5299C34.1338 15.2167 36.8438 12.9118 37.5606 9.66701L38.3893 5.23624V5.25862ZM23.5174 21.7509L23.3606 22.4894C23.2038 23.2502 22.5543 23.8097 21.7479 23.8097H13.4161L14.2896 19.6922H21.9047C22.823 19.6922 23.5621 20.453 23.5621 21.3705C23.5621 22.288 23.5621 21.639 23.5174 21.7509ZM25.0628 10.0474L24.9284 10.6964V10.7411C24.9284 10.7411 24.9284 10.7411 24.9284 10.7635C24.7716 11.4348 24.1669 11.9495 23.4502 11.9495H15.9694L16.7533 8.19009H23.5845C24.4356 8.19009 25.1076 8.90617 25.1076 9.73414C25.1076 10.5621 25.1076 9.93554 25.0852 10.0251L25.0628 10.0474Z"></path>
</g>
<defs>
<clipPath id="clip0_3910_3236">
<rect fill="white" height="32" width="142"></rect>
</clipPath>
</defs>
</svg>
